<svg xmlns="http://www.w3.org/2000/svg" width="36" height="36" viewBox="0 0 36 36">
  <defs>
    <style>
      .cls-1 {
        fill: #fff;
        fill-rule: evenodd;
      }
    </style>
  </defs>
  <path id="Forma_1_copy_5" data-name="Forma 1 copy 5" class="cls-1" d="M1497.02,528A18,18,0,1,1,1515,509.984,18.03,18.03,0,0,1,1497.02,528Zm0-33.489a15.473,15.473,0,1,0,15.47,15.473A15.5,15.5,0,0,0,1497.02,494.511Zm-1.71,24.465a1.246,1.246,0,0,1-.9.373,1.3,1.3,0,0,1-.9-0.373,1.283,1.283,0,0,1,0-1.8l7.29-7.287-7.29-7.287a1.272,1.272,0,1,1,1.8-1.8l8.19,8.186a1.278,1.278,0,0,1,0,1.8Z" transform="translate(-1479 -492)"/>
</svg>
