<svg xmlns="http://www.w3.org/2000/svg" width="20" height="20" viewBox="0 0 20 20">
  <defs>
    <style>
      .cls-1 {
        fill: #485368;
        fill-rule: evenodd;
      }
    </style>
  </defs>
  <path class="cls-1" d="M1367.24,102.647l-3.92-3.919a1.205,1.205,0,0,0-1.7,0l-1.01,1.019a1.217,1.217,0,0,0-.31,1.181l-0.38.385h0c-0.28.273-1.98-.146-4.03-2.2s-2.48-3.755-2.2-4.029h0l0.38-.385a1.209,1.209,0,0,0,.33.047,1.189,1.189,0,0,0,.85-0.351l1.02-1.019a1.2,1.2,0,0,0,0-1.7l-3.92-3.919a1.185,1.185,0,0,0-.85-0.352,1.163,1.163,0,0,0-.84.352l-1.02,1.019a1.217,1.217,0,0,0-.31,1.181l-0.34.35c-1.08,1.2-1.29,3.1-.57,5.371a18.654,18.654,0,0,0,10.9,10.9,8.283,8.283,0,0,0,2.48.423,4.151,4.151,0,0,0,3.03-1.12l0.21-.213a1.252,1.252,0,0,0,.33.047,1.2,1.2,0,0,0,.85-0.351l1.02-1.02A1.2,1.2,0,0,0,1367.24,102.647Zm-15.74-14.04,3.92,3.919-1.02,1.02h0l-0.01-.015-1.95-1.945-1.95-1.959Zm12.48,16.424h0c-0.87.863-2.39,1.006-4.3,0.4a17.454,17.454,0,0,1-10.11-10.115c-0.61-1.907-.47-3.433.4-4.3h0l0.11-.108,3.04,3.041-0.28.279h0c-1.16,1.157.23,3.756,2.2,5.725,1.47,1.474,3.3,2.622,4.61,2.622a1.544,1.544,0,0,0,1.12-.421h0l0.27-.279,3.05,3.042Zm1.39-.518-3.92-3.919,1.02-1.019,3.92,3.919S1365.37,104.515,1365.37,104.514Zm-2.18-12.7a6,6,0,0,0-4.27-1.769,0.6,0.6,0,1,0,0,1.2,4.845,4.845,0,0,1,4.84,4.841,0.6,0.6,0,0,0,1.2,0A6.006,6.006,0,0,0,1363.19,91.812Zm2.15-2.151a9.035,9.035,0,0,0-6.42-2.66,0.6,0.6,0,1,0,0,1.2,7.885,7.885,0,0,1,7.88,7.883,0.6,0.6,0,0,0,1.2,0A9,9,0,0,0,1365.34,89.66Zm-4.3,4.3a2.953,2.953,0,0,0-2.12-.878h0a0.6,0.6,0,1,0,0,1.2h0a1.744,1.744,0,0,1,1.27.527,1.774,1.774,0,0,1,.52,1.271,0.6,0.6,0,0,0,.6.6h0a0.594,0.594,0,0,0,.6-0.6A2.95,2.95,0,0,0,1361.04,93.963Z" transform="translate(-1348 -87)"/>
</svg>
