<svg xmlns="http://www.w3.org/2000/svg" xmlns:xlink="http://www.w3.org/1999/xlink" width="18.657" height="10.844" viewBox="0 0 18.657 10.844">
  <defs>
    <style>
      .cls-1 {
        fill: #fff;
        fill-rule: evenodd;
        filter: url(#filter);
      }
    </style>
    <filter id="filter" x="413.406" y="56.313" width="18.657" height="10.844" filterUnits="userSpaceOnUse">
      <feFlood result="flood" flood-color="#fff"/>
      <feComposite result="composite" operator="in" in2="SourceGraphic"/>
      <feBlend result="blend" in2="SourceGraphic"/>
    </filter>
  </defs>
  <path id="Фигура_1" data-name="Фигура 1" class="cls-1" d="M422.524,67.015h1.113a0.937,0.937,0,0,0,.508-0.224A0.827,0.827,0,0,0,424.3,66.3s-0.021-1.51.672-1.732,1.561,1.459,2.49,2.1a1.752,1.752,0,0,0,1.238.381l2.487-.035s1.3-.081.684-1.115a8.391,8.391,0,0,0-1.849-2.162c-1.56-1.462-1.351-1.226.528-3.756,1.144-1.541,1.6-2.481,1.458-2.885a1.078,1.078,0,0,0-.978-0.282l-2.8.017a0.63,0.63,0,0,0-.362.064,0.792,0.792,0,0,0-.247.3,16.47,16.47,0,0,1-1.034,2.207c-1.247,2.14-1.745,2.253-1.949,2.12-0.474-.31-0.356-1.244-0.356-1.908,0-2.073.311-2.938-.606-3.162a4.742,4.742,0,0,0-1.307-.131,5.972,5.972,0,0,0-2.323.24c-0.319.157-.564,0.509-0.415,0.529a1.252,1.252,0,0,1,.827.42,2.757,2.757,0,0,1,.277,1.281s0.165,2.441-.385,2.744c-0.378.208-.9-0.217-2.007-2.158a18.182,18.182,0,0,1-1-2.094,0.841,0.841,0,0,0-.231-0.315,1.15,1.15,0,0,0-.43-0.175l-2.661.018a0.9,0.9,0,0,0-.546.187,0.593,0.593,0,0,0-.01.479s2.082,4.926,4.441,7.407A6.354,6.354,0,0,0,422.524,67.015Z" transform="translate(-413.406 -56.313)"/>
</svg>
